<svg width="100" height="100" viewBox="0 0 100 100" fill="none" xmlns="http://www.w3.org/2000/svg">
<path fill-rule="evenodd" clip-rule="evenodd" d="M0 100C-55.2285 100 -100 55.2285 -100 0C-100 -55.2285 -55.2285 -100 0 -100C55.2285 -100 100 -55.2285 100 0C100 55.2285 55.2285 100 0 100ZM0 33C-18.2254 33 -33 18.2254 -33 0C-33 -18.2254 -18.2254 -33 0 -33C18.2254 -33 33 -18.2254 33 0C33 18.2254 18.2254 33 0 33Z" fill="#012F34"/>
<path fill-rule="evenodd" clip-rule="evenodd" d="M100 0H96V4H100V0ZM89 0H93V4H89V0ZM89 8H93V12H89V8ZM93 16H89V20H93V16ZM89 24H93V28H89V24ZM93 32H89V36H93V32ZM89 40H93V44H89V40ZM86 0H82V4H86V0ZM86 8H82V12H86V8ZM82 16H86V20H82V16ZM86 24H82V28H86V24ZM82 32H86V36H82V32ZM86 40H82V44H86V40ZM100 8H96V12H100V8ZM79 0H75V4H79V0ZM79 8H75V12H79V8ZM75 16H79V20H75V16ZM79 24H75V28H79V24ZM75 32H79V36H75V32ZM79 40H75V44H79V40ZM100 16H96V20H100V16ZM72 0H68V4H72V0ZM72 8H68V12H72V8ZM68 16H72V20H68V16ZM72 24H68V28H72V24ZM68 32H72V36H68V32ZM72 40H68V44H72V40ZM100 24H96V28H100V24ZM65 0H61V4H65V0ZM65 8H61V12H65V8ZM61 16H65V20H61V16ZM65 24H61V28H65V24ZM61 32H65V36H61V32ZM65 40H61V44H65V40ZM100 32H96V36H100V32ZM58 0H54V4H58V0ZM58 8H54V12H58V8ZM54 16H58V20H54V16ZM58 24H54V28H58V24ZM54 32H58V36H54V32ZM58 40H54V44H58V40ZM100 40H96V44H100V40ZM51 0H47V4H51V0ZM51 8H47V12H51V8ZM47 16H51V20H47V16ZM51 24H47V28H51V24ZM47 32H51V36H47V32ZM51 40H47V44H51V40Z" fill="#F67E7E"/>
</svg>
